<svg xmlns="http://www.w3.org/2000/svg" version="1.1" width="724px" height="629px" style="shape-rendering:geometricPrecision; text-rendering:geometricPrecision; image-rendering:optimizeQuality; fill-rule:evenodd; clip-rule:evenodd" xmlns:xlink="http://www.w3.org/1999/xlink">
<g><path style="opacity:0.987" fill="currentColor" d="M 507.5,159.5 C 517.329,156.527 527.329,155.527 537.5,156.5C 528.98,161.284 519.98,164.784 510.5,167C 509.122,168.713 507.455,170.047 505.5,171C 513.291,168.988 521.291,168.155 529.5,168.5C 529.5,169.5 529.5,170.5 529.5,171.5C 522.689,174.272 515.689,176.772 508.5,179C 504.824,182.058 501.158,185.058 497.5,188C 467.304,206.847 440.137,229.347 416,255.5C 409.569,262.695 405.569,271.029 404,280.5C 396.181,295.318 384.347,305.485 368.5,311C 362.805,311.626 357.138,311.459 351.5,310.5C 351.5,312.5 351.5,314.5 351.5,316.5C 349.345,316.628 347.345,316.128 345.5,315C 342.443,312.277 339.11,309.944 335.5,308C 328.512,302.348 323.012,295.514 319,287.5C 316.752,264.679 313.419,242.012 309,219.5C 302.078,191.992 290.078,166.992 273,144.5C 262.302,133.48 250.135,124.313 236.5,117C 229.58,114.852 222.58,112.852 215.5,111C 172.739,104.956 142.572,121.456 125,160.5C 118.991,178.371 116.991,196.705 119,215.5C 125.194,285.783 149.528,348.45 192,403.5C 204.223,417.412 216.223,431.746 228,446.5C 228.659,449.353 227.492,451.02 224.5,451.5C 222.005,449.873 219.505,448.207 217,446.5C 216.075,447.047 215.242,447.713 214.5,448.5C 215.95,449.85 216.617,451.516 216.5,453.5C 214.217,453.392 212.217,452.559 210.5,451C 207.103,447.69 203.603,444.523 200,441.5C 199.097,442.701 197.931,443.535 196.5,444C 199.251,447.93 202.251,451.764 205.5,455.5C 214.814,463.383 224.314,471.05 234,478.5C 235.825,484.731 237.158,491.065 238,497.5C 248.055,507.22 257.722,517.22 267,527.5C 267.579,529.649 268.079,531.815 268.5,534C 266.623,538.715 267.29,542.882 270.5,546.5C 270.32,547.554 269.987,548.554 269.5,549.5C 271.078,550.298 272.744,550.798 274.5,551C 280.947,555.635 287.447,560.135 294,564.5C 293.865,567.938 295.032,570.772 297.5,573C 302.48,575.968 307.48,578.968 312.5,582C 318.569,586.127 324.402,590.627 330,595.5C 330.452,599.011 329.285,599.511 326.5,597C 319.406,590.613 311.739,584.947 303.5,580C 298.102,576.634 292.435,573.801 286.5,571.5C 284.585,569.929 283.585,567.929 283.5,565.5C 279.355,564.863 276.522,562.529 275,558.5C 275.207,560.751 275.373,563.085 275.5,565.5C 274.127,565.657 272.793,565.49 271.5,565C 269.392,560.894 266.558,557.394 263,554.5C 260.904,557.014 258.404,557.681 255.5,556.5C 246.156,550.429 236.822,544.262 227.5,538C 225.782,537.654 224.115,537.154 222.5,536.5C 221.417,537.365 221.251,538.365 222,539.5C 225.201,543.362 229.034,546.528 233.5,549C 244.848,559.65 243.515,561.65 229.5,555C 215.99,547.08 202.99,538.413 190.5,529C 183.896,523.734 177.563,518.068 171.5,512C 167.894,510.726 165.227,508.393 163.5,505C 162.167,504.333 160.833,503.667 159.5,503C 149.052,490.55 137.885,478.717 126,467.5C 125.138,465.913 124.471,464.246 124,462.5C 121.708,461.21 119.708,459.543 118,457.5C 115.333,453.5 112.667,449.5 110,445.5C 108.316,443.649 106.483,441.982 104.5,440.5C 95.7243,427.393 86.891,414.393 78,401.5C 57.7242,367.399 42.0575,331.066 31,292.5C 28.2107,277.13 25.2107,261.797 22,246.5C 14.627,196.992 21.9603,149.992 44,105.5C 82.1691,43.9864 138.002,14.8197 211.5,18C 222.142,19.5516 232.809,20.8849 243.5,22C 273.418,30.0997 300.084,43.933 323.5,63.5C 334.772,74.611 345.605,86.2777 356,98.5C 379.536,134.301 394.869,173.634 402,216.5C 411.129,209.373 419.963,201.873 428.5,194C 450.174,177.341 473.174,162.674 497.5,150C 500.618,148.273 503.951,147.439 507.5,147.5C 507.351,148.552 507.517,149.552 508,150.5C 509.356,149.62 510.856,149.286 512.5,149.5C 512.22,146.612 513.553,145.112 516.5,145C 522.097,140.757 527.764,136.424 533.5,132C 535.134,131.506 536.801,131.34 538.5,131.5C 538.617,133.484 537.95,135.15 536.5,136.5C 528.424,142.071 521.09,148.571 514.5,156C 511.813,156.728 509.48,157.895 507.5,159.5 Z M 507.5,159.5 C 506.335,161.416 504.668,162.249 502.5,162C 503.91,160.628 505.577,159.795 507.5,159.5 Z"/></g>
<g><path style="opacity:0.988" fill="currentColor" d="M 640.5,188.5 C 643.807,189.051 647.14,189.384 650.5,189.5C 649.561,193.343 650.728,196.677 654,199.5C 654.5,199 655,198.5 655.5,198C 660.087,197.201 664.587,197.368 669,198.5C 670.974,204.337 672.307,210.337 673,216.5C 673.692,210.067 674.859,203.734 676.5,197.5C 680.463,197.089 684.13,197.922 687.5,200C 690.042,203.631 692.209,207.464 694,211.5C 695.11,209.963 696.61,209.297 698.5,209.5C 699.051,233.814 695.551,257.481 688,280.5C 683.494,292.514 678.161,304.181 672,315.5C 654.273,344.987 634.607,372.987 613,399.5C 611.79,403.376 609.457,406.376 606,408.5C 605.667,409.5 605.333,410.5 605,411.5C 563.59,462.269 525.59,515.602 491,571.5C 481.697,582.783 469.697,588.783 455,589.5C 448.245,587.949 441.411,586.783 434.5,586C 430.089,582.63 425.589,579.463 421,576.5C 419.423,573.249 417.423,570.249 415,567.5C 412.145,560.6 410.312,553.434 409.5,546C 410.519,538.943 412.352,532.11 415,525.5C 426.368,507.477 437.701,489.477 449,471.5C 452.305,468.905 454.639,465.571 456,461.5C 464.165,451.347 471.499,440.68 478,429.5C 490.344,414.468 502.011,398.801 513,382.5C 514.154,381.257 515.488,380.257 517,379.5C 517.456,375.706 519.456,373.039 523,371.5C 530.594,359.997 538.928,348.997 548,338.5C 552.312,332.182 556.645,325.848 561,319.5C 564.055,317.74 565.888,315.073 566.5,311.5C 570.576,306.159 574.742,300.826 579,295.5C 588.711,280.319 598.045,264.986 607,249.5C 610.923,241.986 614.59,234.319 618,226.5C 619.348,220.405 621.682,214.738 625,209.5C 628.633,206.608 632.133,203.608 635.5,200.5C 637.562,196.643 639.229,192.643 640.5,188.5 Z"/></g>
<g><path style="opacity:0.984" fill="#FF5D01" d="M 488.5,247.5 C 516.48,244.675 534.313,256.675 542,283.5C 544.646,310.51 533.146,328.344 507.5,337C 501.167,337.667 494.833,337.667 488.5,337C 480.285,334.738 473.285,330.738 467.5,325C 463.594,324.027 461.427,321.527 461,317.5C 457.176,314.074 454.842,309.741 454,304.5C 452.581,292.888 453.581,281.554 457,270.5C 459.44,268.726 461.106,266.392 462,263.5C 469.355,255.632 478.189,250.299 488.5,247.5 Z"/></g>
</svg>
