<svg xmlns="http://www.w3.org/2000/svg" version="1.1" width="1870px" height="544px" style="shape-rendering:geometricPrecision; text-rendering:geometricPrecision; image-rendering:optimizeQuality; fill-rule:evenodd; clip-rule:evenodd" xmlns:xlink="http://www.w3.org/1999/xlink">
<g><path style="opacity:0.978" fill="currentColor" d="M 934.5,11.5 C 962.188,10.7033 981.355,23.0367 992,48.5C 998.52,78.6246 988.02,100.458 960.5,114C 933.144,122.211 911.311,114.711 895,91.5C 880.412,58.8619 888.579,33.6953 919.5,16C 924.535,14.1506 929.535,12.6506 934.5,11.5 Z"/></g>
<g><path style="opacity:0.988" fill="currentColor" d="M 211.5,20.5 C 248.824,25.7671 286.158,25.7671 323.5,20.5C 316.839,147.149 316.839,273.816 323.5,400.5C 306.715,398.595 289.882,397.262 273,396.5C 255.78,397.205 238.613,398.539 221.5,400.5C 222.517,390.856 223.017,381.189 223,371.5C 204.796,394.414 180.963,405.08 151.5,403.5C 118.267,404.376 90.7673,392.376 69,367.5C 48.1681,340.169 38.0014,309.169 38.5,274.5C 37.957,243.027 45.457,213.694 61,186.5C 86.6502,148.941 122.15,132.774 167.5,138C 184.953,141.644 200.453,149.144 214,160.5C 214.314,113.815 213.481,67.1482 211.5,20.5 Z M 179.5,182.5 C 191.785,181.225 200.952,185.892 207,196.5C 212.795,211.265 215.795,226.598 216,242.5C 217.082,268.222 216.416,293.888 214,319.5C 212.502,330.329 208.836,340.329 203,349.5C 190.333,362.833 177.667,362.833 165,349.5C 158.078,338.159 154.078,325.826 153,312.5C 149.727,284.505 149.727,256.505 153,228.5C 154.238,215.535 158.238,203.535 165,192.5C 169.23,188.072 174.063,184.739 179.5,182.5 Z"/></g>
<g><path style="opacity:0.985" fill="currentColor" d="M 807.5,29.5 C 812.893,30.0097 816.56,32.6764 818.5,37.5C 813.808,73.6778 811.808,110.011 812.5,146.5C 826.364,146.443 840.197,145.776 854,144.5C 855.167,144.833 856.333,145.167 857.5,145.5C 854.957,157.826 854.957,170.159 857.5,182.5C 855.167,182.833 852.833,183.167 850.5,183.5C 837.932,182.977 825.432,182.31 813,181.5C 812.017,235.878 812.35,290.212 814,344.5C 817.015,353.514 823.182,359.014 832.5,361C 835.758,361.212 838.924,361.712 842,362.5C 850.32,361.229 858.487,359.229 866.5,356.5C 865.788,361.651 865.121,366.817 864.5,372C 865.377,377.84 865.877,383.673 866,389.5C 835.911,401.209 804.744,406.043 772.5,404C 732.867,399.367 711.034,377.2 707,337.5C 708.049,285.51 708.383,233.51 708,181.5C 694.913,182.613 681.747,183.28 668.5,183.5C 669.353,176.161 670.353,168.827 671.5,161.5C 670.988,156.06 669.988,150.726 668.5,145.5C 669.667,145.167 670.833,144.833 672,144.5C 684.127,145.884 696.294,146.551 708.5,146.5C 708.333,124.831 708.5,103.164 709,81.5C 743.746,67.3817 776.579,50.0484 807.5,29.5 Z"/></g>
<g><path style="opacity:0.986" fill="currentColor" d="M 492.5,136.5 C 528.305,133.16 562.305,139.326 594.5,155C 636.646,180.763 657.979,218.596 658.5,268.5C 657.82,331.743 627.82,373.91 568.5,395C 533.401,403.815 498.068,404.815 462.5,398C 403.422,384.006 370.588,346.839 364,286.5C 358.676,210.516 392.509,162.016 465.5,141C 474.642,139.476 483.642,137.976 492.5,136.5 Z M 510.5,169.5 C 524.811,171.97 533.978,180.303 538,194.5C 540.811,204.983 542.477,215.65 543,226.5C 545.133,259.193 544.799,291.859 542,324.5C 541.244,338.442 536.744,350.942 528.5,362C 517.807,370.519 506.807,371.186 495.5,364C 489.631,357.459 485.464,349.959 483,341.5C 478.36,317.065 476.526,292.398 477.5,267.5C 476.934,246.396 478.101,225.396 481,204.5C 482.871,192.591 488.037,182.424 496.5,174C 501.002,171.553 505.669,170.053 510.5,169.5 Z"/></g>
<g><path style="opacity:0.988" fill="currentColor" d="M 1225.5,136.5 C 1245.41,135.262 1264.41,138.762 1282.5,147C 1297.44,155.604 1307.6,168.104 1313,184.5C 1315.86,194.642 1317.52,204.975 1318,215.5C 1318.34,249.11 1318.18,282.443 1317.5,315.5C 1317.58,343.863 1318.25,372.197 1319.5,400.5C 1301.06,398.428 1282.56,397.094 1264,396.5C 1245.77,397.043 1227.6,398.377 1209.5,400.5C 1211.48,354.855 1212.81,309.188 1213.5,263.5C 1213.48,252.143 1212.98,240.81 1212,229.5C 1211.75,216.809 1206.25,207.309 1195.5,201C 1180.18,196.911 1169.35,202.078 1163,216.5C 1161.69,220.42 1160.69,224.42 1160,228.5C 1158.08,248.95 1157.24,269.45 1157.5,290C 1157.75,326.86 1158.75,363.693 1160.5,400.5C 1140.66,399.346 1120.83,398.012 1101,396.5C 1083.82,397.684 1066.65,399.017 1049.5,400.5C 1053.45,355.772 1055.11,310.939 1054.5,266C 1054.98,223.435 1053.64,180.935 1050.5,138.5C 1085.84,143.814 1121.17,143.814 1156.5,138.5C 1155.59,150.854 1154.76,163.188 1154,175.5C 1166.8,161.027 1181.97,149.86 1199.5,142C 1208.15,139.398 1216.81,137.565 1225.5,136.5 Z"/></g>
<g><path style="opacity:0.984" fill="currentColor" d="M 1472.5,136.5 C 1488.89,136.169 1505.23,137.002 1521.5,139C 1539.32,141.887 1557.16,144.721 1575,147.5C 1597.83,146.232 1620.66,145.399 1643.5,145C 1639.86,158.037 1639.53,171.204 1642.5,184.5C 1628.52,183.309 1614.52,182.809 1600.5,183C 1614.88,204.787 1617.38,227.953 1608,252.5C 1598.6,271.235 1584.1,284.402 1564.5,292C 1550.39,297.861 1535.72,301.527 1520.5,303C 1501.77,303.797 1483.1,303.463 1464.5,302C 1453.45,307.732 1450.45,316.232 1455.5,327.5C 1458.62,330.393 1462.29,332.226 1466.5,333C 1502.15,334.754 1537.82,336.087 1573.5,337C 1616.67,341.338 1639.01,365.171 1640.5,408.5C 1639.88,450.253 1622.21,482.42 1587.5,505C 1554.54,524.997 1518.71,534.497 1480,533.5C 1450.7,533.639 1422.53,528.139 1395.5,517C 1375.01,508.186 1362.18,493.019 1357,471.5C 1353.71,449.581 1361.55,433.081 1380.5,422C 1390.49,416.839 1400.82,412.506 1411.5,409C 1373.9,392.962 1363.06,366.128 1379,328.5C 1392.19,311.473 1409.35,300.307 1430.5,295C 1383.99,284.171 1362.49,255.004 1366,207.5C 1368.67,189.336 1377.17,174.503 1391.5,163C 1416.22,147.036 1443.22,138.203 1472.5,136.5 Z M 1487.5,167.5 C 1501.32,166.154 1510.15,172.154 1514,185.5C 1515.52,191.075 1516.52,196.742 1517,202.5C 1517.67,214.833 1517.67,227.167 1517,239.5C 1517.4,251.107 1513.9,261.273 1506.5,270C 1496.59,275.832 1487.09,274.999 1478,267.5C 1472.87,259.643 1470.2,250.976 1470,241.5C 1469.33,228.167 1469.33,214.833 1470,201.5C 1470.71,192.696 1473.05,184.362 1477,176.5C 1479.88,172.663 1483.38,169.663 1487.5,167.5 Z M 1446.5,416.5 C 1470.51,416.377 1494.51,416.877 1518.5,418C 1551.24,419.417 1563.07,435.917 1554,467.5C 1545.04,481.581 1532.21,490.081 1515.5,493C 1494.13,497.226 1473.13,495.892 1452.5,489C 1429.31,477.107 1422.48,458.94 1432,434.5C 1435.91,427.758 1440.74,421.758 1446.5,416.5 Z"/></g>
<g><path style="opacity:0.987" fill="currentColor" d="M 884.5,138.5 C 922.161,143.801 959.827,143.801 997.5,138.5C 992.627,225.835 992.294,313.168 996.5,400.5C 977.548,398.565 958.548,397.232 939.5,396.5C 920.799,397.412 902.132,398.746 883.5,400.5C 889.729,313.201 890.063,225.868 884.5,138.5 Z"/></g>
</svg>
